<svg
   height="93.84066mm"
   width="87.372063mm"
   viewBox="0 0 330.22512 354.67336"
   y="0px"
   x="0px"
   id="Layer_1"
   version="1.1"
   
   
   xmlns="http://www.w3.org/2000/svg"
   
   
   
   ><style
   id="style2"
   type="text/css">
	.st0{fill:#AD8254;}
	.st1{fill:#18273A;}
</style><path
   id="path31"
   style="fill:#AD8254;fill-opacity:1;fill-rule:nonzero;stroke:none;stroke-width:1.33333"
   d="m 177.33702,32.359912 59.936,59.936 h 32.36 L 177.33702,-8.7928062e-5 -2.8510803e-4,177.33732 177.33702,354.67332 v -32.36 L 32.361015,177.33732 Z" /><path
   id="path32"
   style="fill:#18273A;fill-opacity:1;fill-rule:nonzero;stroke:none;stroke-width:1.33333"
   d="m 116.09962,128.80782 c -5.1147,0 -9.2614,4.1467 -9.2614,9.2613 v 5.556 c 0,5.1147 4.1467,9.2614 9.2614,9.2614 h 181.764 32.3613 l -24.0787,-24.0787 h -32.3613 z" /><path
   id="path33"
   style="fill:#18273A;fill-opacity:1;fill-rule:nonzero;stroke:none;stroke-width:1.33333"
   d="m 305.57522,160.27712 h -0.32 -140.9534 c -5.1146,0 -9.26,4.1467 -9.26,9.2614 0,5.1146 4.1454,9.26 9.26,9.26 h 141.2734 c 5.0146,0 9.0746,-3.992 9.232,-8.9694 0,-0.099 0.029,-0.1906 0.029,-0.2906 0,-5.1147 -4.1467,-9.2614 -9.2614,-9.2614" /><path
   id="path35"
   style="fill:#18273A;fill-opacity:1;fill-rule:nonzero;stroke:none;stroke-width:1.33333"
   d="m 164.30222,102.87632 c -5.1146,0 -9.2613,4.1467 -9.2613,9.2614 0,5.1146 4.1467,9.2613 9.2613,9.2613 h 102.0734 32.3613 l -18.5227,-18.5227 h -32.36 z" /><path
   id="path36"
   style="fill:#18273A;fill-opacity:1;fill-rule:nonzero;stroke:none;stroke-width:1.33333"
   d="m 263.63902,187.79302 c -5.1146,0 -9.2613,4.1467 -9.2613,9.2613 v 48.2187 32.36 l 18.5227,-18.5213 v -32.3614 -29.696 c 0,-5.1146 -4.1467,-9.2613 -9.2614,-9.2613" /><path
   id="path37"
   style="fill:#18273A;fill-opacity:1;fill-rule:nonzero;stroke:none;stroke-width:1.33333"
   d="m 237.70782,187.79302 h -5.5573 c -5.1147,0 -9.26,4.1467 -9.26,9.2613 v 79.7067 32.36 l 24.0787,-24.0787 v -32.36 -55.628 c 0,-5.1146 -4.1467,-9.2613 -9.2614,-9.2613" /><path
   id="path39"
   style="fill:#18273A;fill-opacity:1;fill-rule:nonzero;stroke:none;stroke-width:1.33333"
   d="m 206.23842,187.79302 c -5.1147,0 -9.2614,4.1467 -9.2614,9.2613 v 105.6187 32.3613 l 18.5227,-18.5226 v -32.36 -87.0974 c 0,-5.1146 -4.1467,-9.2613 -9.2613,-9.2613" /><path
   d="m 177.33702,32.359912 59.936,59.936 h 32.36 L 177.33702,-8.7928062e-5 -2.8510803e-4,177.33732 177.33702,354.67332 v -32.36 L 32.361015,177.33732 Z"
   style="fill:#AD8254;fill-opacity:1;fill-rule:nonzero;stroke:none;stroke-width:1.33333"
   id="path40" /><path
   d="m 116.09962,128.80782 c -5.1147,0 -9.2614,4.1467 -9.2614,9.2613 v 5.556 c 0,5.1147 4.1467,9.2614 9.2614,9.2614 h 181.764 32.3613 l -24.0787,-24.0787 h -32.3613 z"
   style="fill:#18273A;fill-opacity:1;fill-rule:nonzero;stroke:none;stroke-width:1.33333"
   id="path41" /><path
   d="m 305.57522,160.27712 h -0.32 -140.9534 c -5.1146,0 -9.26,4.1467 -9.26,9.2614 0,5.1146 4.1454,9.26 9.26,9.26 h 141.2734 c 5.0146,0 9.0746,-3.992 9.232,-8.9694 0,-0.099 0.029,-0.1906 0.029,-0.2906 0,-5.1147 -4.1467,-9.2614 -9.2614,-9.2614"
   style="fill:#18273A;fill-opacity:1;fill-rule:nonzero;stroke:none;stroke-width:1.33333"
   id="path108" /><path
   d="m 164.30222,102.87632 c -5.1146,0 -9.2613,4.1467 -9.2613,9.2614 0,5.1146 4.1467,9.2613 9.2613,9.2613 h 102.0734 32.3613 l -18.5227,-18.5227 h -32.36 z"
   style="fill:#18273A;fill-opacity:1;fill-rule:nonzero;stroke:none;stroke-width:1.33333"
   id="path109" /><path
   d="m 263.63902,187.79302 c -5.1146,0 -9.2613,4.1467 -9.2613,9.2613 v 48.2187 32.36 l 18.5227,-18.5213 v -32.3614 -29.696 c 0,-5.1146 -4.1467,-9.2613 -9.2614,-9.2613"
   style="fill:#18273A;fill-opacity:1;fill-rule:nonzero;stroke:none;stroke-width:1.33333"
   id="path111" /><path
   d="m 237.70782,187.79302 h -5.5573 c -5.1147,0 -9.26,4.1467 -9.26,9.2613 v 79.7067 32.36 l 24.0787,-24.0787 v -32.36 -55.628 c 0,-5.1146 -4.1467,-9.2613 -9.2614,-9.2613"
   style="fill:#18273A;fill-opacity:1;fill-rule:nonzero;stroke:none;stroke-width:1.33333"
   id="path112" /><path
   d="m 206.23842,187.79302 c -5.1147,0 -9.2614,4.1467 -9.2614,9.2613 v 105.6187 32.3613 l 18.5227,-18.5226 v -32.36 -87.0974 c 0,-5.1146 -4.1467,-9.2613 -9.2613,-9.2613"
   style="fill:#18273A;fill-opacity:1;fill-rule:nonzero;stroke:none;stroke-width:1.33333"
   id="path113" /></svg>
