<svg
   height="93.84066mm"
   width="331.32672mm"
   viewBox="0 0 1252.2585 354.67336"
   y="0px"
   x="0px"
   id="Layer_1"
   version="1.1"
   
   
   xmlns="http://www.w3.org/2000/svg"
   
   
   
   ><style
   id="style2"
   type="text/css">
	.st0{fill:#AD8254;}
	.st1{fill:#18273A;}
</style><rect
   style="fill:#18273A;stroke:none;stroke-width:1.63762"
   height="180.99307"
   width="3.8726056"
   class="st1"
   y="86.923164"
   x="348.48886"
   id="rect1" /><polygon
   transform="matrix(1.6135856,0,0,1.6620117,-544.63071,-686.90948)"
   style="fill:#18273A;stroke:none"
   points="564.8,574.4 564.8,465.6 564.8,441.6 562.4,441.6 562.4,465.6 562.4,574.4 562.4,598.4 564.8,598.4 "
   class="st1"
   id="polygon1" /><rect
   style="fill:#18273A;stroke:none;stroke-width:1.63762"
   height="180.99307"
   width="3.8726056"
   class="st1"
   y="86.923164"
   x="377.37216"
   id="rect2" /><rect
   id="rect3"
   x="348.48886"
   y="86.923164"
   class="st1"
   width="3.8726056"
   height="180.99307"
   style="fill:#18273A;stroke:none;stroke-width:1.63762" /><polygon
   id="polygon3"
   class="st1"
   points="564.8,574.4 564.8,465.6 564.8,441.6 562.4,441.6 562.4,465.6 562.4,574.4 562.4,598.4 564.8,598.4 "
   style="fill:#18273A;stroke:none"
   transform="matrix(1.6135856,0,0,1.6620117,-544.63071,-686.90948)" /><rect
   id="rect4"
   x="377.37216"
   y="86.923164"
   class="st1"
   width="3.8726056"
   height="180.99307"
   style="fill:#18273A;stroke:none;stroke-width:1.63762" /><path
   id="path4"
   class="st0"
   d="m 441.27009,116.65222 c 20.6539,0 37.5966,17.2849 37.5966,38.5586 0,9.4735 -3.3886,18.2822 -8.8748,24.9302 -0.6454,0.831 -1.4522,1.4958 -2.0976,2.3268 -6.7771,7.1467 -16.1359,11.3017 -26.4628,11.3017 h -37.5966 v -77.4497 z m -24.2038,63.4888 h 24.2038 c 13.2314,0 24.2038,-11.1355 24.2038,-24.9302 0,-13.6285 -10.811,-24.9301 -24.2038,-24.9301 h -24.2038 z"
   style="fill:#AD8254;stroke:none;stroke-width:1.63762" /><path
   id="path5"
   class="st0"
   d="m 561.96629,155.21082 c 0,21.2738 -16.7813,38.7249 -37.5965,38.7249 -20.8153,0 -37.5966,-17.2849 -37.5966,-38.7249 0,-21.2737 16.7813,-38.7248 37.5966,-38.7248 20.8152,0 37.5965,17.2849 37.5965,38.7248 z m -13.3927,0 c 0,-13.6285 -10.8111,-24.9301 -24.2038,-24.9301 -13.3928,0 -24.2038,11.1354 -24.2038,24.9301 0,13.6285 10.811,24.9302 24.2038,24.9302 13.3927,0 24.2038,-11.3017 24.2038,-24.9302 z"
   style="fill:#AD8254;stroke:none;stroke-width:1.63762" /><path
   id="path6"
   class="st0"
   d="m 645.22729,116.48602 v 77.4497 h -13.3927 v -49.3617 l -13.2314,10.4706 -10.9724,8.8087 -10.9724,-8.8087 -13.2314,-10.4706 v 49.3617 h -13.3928 v -77.4497 l 13.3928,10.6368 24.2038,19.1132 24.2038,-19.1132 z"
   style="fill:#AD8254;stroke:none;stroke-width:1.63762" /><path
   id="path7"
   class="st0"
   d="m 669.43109,137.42732 v 7.1467 h 48.2462 v 13.7947 h -48.2462 v 14.6257 c 0,3.8226 3.0658,7.1466 6.9384,7.1466 h 54.862 v 13.7947 h -54.862 c -11.1337,0 -20.1698,-9.4735 -20.1698,-20.9413 v -35.5671 c 0,-11.4679 9.0361,-20.9413 20.1698,-20.9413 h 54.862 v 13.7947 h -54.862 c -3.8726,0 -6.9384,3.1578 -6.9384,7.1466 z"
   style="fill:#AD8254;stroke:none;stroke-width:1.63762" /><path
   id="path8"
   class="st0"
   d="m 799.48609,137.92592 v -0.4986 c 0,-3.8226 -3.0658,-7.1466 -6.9384,-7.1466 h -30.4968 c -3.7112,0 -6.9384,3.1578 -6.9384,7.1466 v 0.4986 c 0,3.8226 3.0658,7.1467 6.9384,7.1467 h 27.1083 c 6.9384,0 13.2314,3.1578 17.4267,7.9776 0.3227,0.3324 0.4841,0.6648 0.8068,0.9972 3.3885,4.1551 5.3248,9.6397 5.3248,15.4567 0,13.4623 -10.6496,24.4316 -23.7197,24.4316 h -23.397 c -13.07,0 -23.7197,-10.9693 -23.7197,-24.4316 h 13.3928 c 0,5.8171 4.6794,10.6369 10.3269,10.6369 h 23.5584 c 5.6475,0 10.4883,-4.8198 10.4883,-10.6369 0,-5.817 -4.6794,-10.6368 -10.4883,-10.6368 h -27.1083 c -5.4862,0 -10.4883,-2.1606 -14.0382,-5.8171 -0.9681,-0.9972 -1.7749,-2.1606 -2.5817,-3.324 -2.259,-3.324 -3.5499,-7.4791 -3.5499,-11.8003 v -0.4986 c 0,-11.4679 9.0361,-20.9413 20.1698,-20.9413 h 30.4968 c 11.1337,0 20.3312,9.4734 20.3312,20.9413 v 0.4986 z"
   style="fill:#AD8254;stroke:none;stroke-width:1.63762" /><path
   id="path9"
   class="st0"
   d="m 937.77039,180.14102 v 13.7947 h -38.0806 c -3.7113,0 -7.2612,-0.831 -10.4883,-2.493 -4.6794,-2.493 -8.552,-6.4819 -10.811,-11.3017 -1.6136,-3.324 -2.4204,-6.9804 -2.4204,-10.8031 v -52.6857 h 13.3927 v 54.0153 c 0.6455,4.8199 4.3567,8.8087 9.1975,9.4735 z"
   style="fill:#AD8254;stroke:none;stroke-width:1.63762" /><path
   id="path10"
   class="st0"
   d="m 961.97419,137.42732 v 7.1467 h 48.24611 v 13.7947 h -48.24611 v 14.6257 c 0,3.8226 3.0658,7.1466 6.9384,7.1466 h 54.86181 v 13.7947 h -54.86181 c -11.1337,0 -20.1698,-9.4735 -20.1698,-20.9413 v -35.5671 c 0,-11.4679 9.0361,-20.9413 20.1698,-20.9413 h 54.86181 v 13.7947 h -54.86181 c -3.8726,0 -6.9384,3.1578 -6.9384,7.1466 z"
   style="fill:#AD8254;stroke:none;stroke-width:1.63762" /><path
   id="path11"
   class="st0"
   d="m 1041.8466,155.21082 c 0,13.6285 10.811,24.9302 24.2038,24.9302 h 24.2038 v -14.7919 h -24.2038 v -13.7947 h 37.5965 v 42.3813 h -37.5965 c -20.6539,0 -37.5966,-17.2849 -37.5966,-38.7249 0,-21.2737 16.7813,-38.7248 37.5966,-38.7248 h 37.5965 v 13.7947 h -37.5965 c -13.3928,0 -24.2038,11.1354 -24.2038,24.9301 z"
   style="fill:#AD8254;stroke:none;stroke-width:1.63762" /><path
   id="path13"
   class="st0"
   d="m 1186.7466,193.93572 h -15.0064 l -6.9384,-13.7947 -16.4586,-33.2402 -16.4585,33.2402 -6.9384,13.7947 h -15.0064 l 6.9384,-13.7947 31.4649,-63.4888 31.465,63.4888 z"
   style="fill:#AD8254;stroke:none;stroke-width:1.63762" /><path
   id="path14"
   class="st0"
   d="m 1252.2581,180.14102 v 13.7947 h -38.0806 c -3.7112,0 -7.2611,-0.831 -10.4883,-2.493 -4.6794,-2.493 -8.552,-6.4819 -10.811,-11.3017 -1.6136,-3.324 -2.4204,-6.9804 -2.4204,-10.8031 v -52.6857 h 13.3928 v 54.0153 c 0.6454,4.8199 4.3567,8.8087 9.1974,9.4735 z"
   style="fill:#AD8254;stroke:none;stroke-width:1.63762" /><path
   d="m 973.26728,-828.05348 -11.31708,0 -11.31708,0 5.65854,-9.80088 5.65854,-9.80088 5.65854,9.80088 z"
   id="path15"
   style="opacity:1;fill:#0000ff;fill-opacity:1;fill-rule:nonzero;stroke:none;stroke-width:1.05278;stroke-linecap:round;stroke-linejoin:miter;stroke-miterlimit:4;stroke-dasharray:none;stroke-opacity:1;paint-order:markers fill stroke"
   transform="matrix(1.6135856,0,0,1.6620117,-403.84571,1569.2801)" /><path
   style="fill:#AD8254;stroke:none;stroke-width:1.63762"
   d="m 441.27009,116.65222 c 20.6539,0 37.5966,17.2849 37.5966,38.5586 0,9.4735 -3.3886,18.2822 -8.8748,24.9302 -0.6454,0.831 -1.4522,1.4958 -2.0976,2.3268 -6.7771,7.1467 -16.1359,11.3017 -26.4628,11.3017 h -37.5966 v -77.4497 z m -24.2038,63.4888 h 24.2038 c 13.2314,0 24.2038,-11.1355 24.2038,-24.9302 0,-13.6285 -10.811,-24.9301 -24.2038,-24.9301 h -24.2038 z"
   class="st0"
   id="path17" /><path
   style="fill:#AD8254;stroke:none;stroke-width:1.63762"
   d="m 561.96629,155.21082 c 0,21.2738 -16.7813,38.7249 -37.5965,38.7249 -20.8153,0 -37.5966,-17.2849 -37.5966,-38.7249 0,-21.2737 16.7813,-38.7248 37.5966,-38.7248 20.8152,0 37.5965,17.2849 37.5965,38.7248 z m -13.3927,0 c 0,-13.6285 -10.8111,-24.9301 -24.2038,-24.9301 -13.3928,0 -24.2038,11.1354 -24.2038,24.9301 0,13.6285 10.811,24.9302 24.2038,24.9302 13.3927,0 24.2038,-11.3017 24.2038,-24.9302 z"
   class="st0"
   id="path19" /><path
   style="fill:#AD8254;stroke:none;stroke-width:1.63762"
   d="m 645.22729,116.48602 v 77.4497 h -13.3927 v -49.3617 l -13.2314,10.4706 -10.9724,8.8087 -10.9724,-8.8087 -13.2314,-10.4706 v 49.3617 h -13.3928 v -77.4497 l 13.3928,10.6368 24.2038,19.1132 24.2038,-19.1132 z"
   class="st0"
   id="path20" /><path
   style="fill:#AD8254;stroke:none;stroke-width:1.63762"
   d="m 669.43109,137.42732 v 7.1467 h 48.2462 v 13.7947 h -48.2462 v 14.6257 c 0,3.8226 3.0658,7.1466 6.9384,7.1466 h 54.862 v 13.7947 h -54.862 c -11.1337,0 -20.1698,-9.4735 -20.1698,-20.9413 v -35.5671 c 0,-11.4679 9.0361,-20.9413 20.1698,-20.9413 h 54.862 v 13.7947 h -54.862 c -3.8726,0 -6.9384,3.1578 -6.9384,7.1466 z"
   class="st0"
   id="path21" /><path
   style="fill:#AD8254;stroke:none;stroke-width:1.63762"
   d="m 799.48609,137.92592 v -0.4986 c 0,-3.8226 -3.0658,-7.1466 -6.9384,-7.1466 h -30.4968 c -3.7112,0 -6.9384,3.1578 -6.9384,7.1466 v 0.4986 c 0,3.8226 3.0658,7.1467 6.9384,7.1467 h 27.1083 c 6.9384,0 13.2314,3.1578 17.4267,7.9776 0.3227,0.3324 0.4841,0.6648 0.8068,0.9972 3.3885,4.1551 5.3248,9.6397 5.3248,15.4567 0,13.4623 -10.6496,24.4316 -23.7197,24.4316 h -23.397 c -13.07,0 -23.7197,-10.9693 -23.7197,-24.4316 h 13.3928 c 0,5.8171 4.6794,10.6369 10.3269,10.6369 h 23.5584 c 5.6475,0 10.4883,-4.8198 10.4883,-10.6369 0,-5.817 -4.6794,-10.6368 -10.4883,-10.6368 h -27.1083 c -5.4862,0 -10.4883,-2.1606 -14.0382,-5.8171 -0.9681,-0.9972 -1.7749,-2.1606 -2.5817,-3.324 -2.259,-3.324 -3.5499,-7.4791 -3.5499,-11.8003 v -0.4986 c 0,-11.4679 9.0361,-20.9413 20.1698,-20.9413 h 30.4968 c 11.1337,0 20.3312,9.4734 20.3312,20.9413 v 0.4986 z"
   class="st0"
   id="path22" /><path
   style="fill:#AD8254;stroke:none;stroke-width:1.63762"
   d="m 937.77039,180.14102 v 13.7947 h -38.0806 c -3.7113,0 -7.2612,-0.831 -10.4883,-2.493 -4.6794,-2.493 -8.552,-6.4819 -10.811,-11.3017 -1.6136,-3.324 -2.4204,-6.9804 -2.4204,-10.8031 v -52.6857 h 13.3927 v 54.0153 c 0.6455,4.8199 4.3567,8.8087 9.1975,9.4735 z"
   class="st0"
   id="path23" /><path
   style="fill:#AD8254;stroke:none;stroke-width:1.63762"
   d="m 961.97419,137.42732 v 7.1467 h 48.24611 v 13.7947 h -48.24611 v 14.6257 c 0,3.8226 3.0658,7.1466 6.9384,7.1466 h 54.86181 v 13.7947 h -54.86181 c -11.1337,0 -20.1698,-9.4735 -20.1698,-20.9413 v -35.5671 c 0,-11.4679 9.0361,-20.9413 20.1698,-20.9413 h 54.86181 v 13.7947 h -54.86181 c -3.8726,0 -6.9384,3.1578 -6.9384,7.1466 z"
   class="st0"
   id="path25" /><path
   style="fill:#AD8254;stroke:none;stroke-width:1.63762"
   d="m 1041.8466,155.21082 c 0,13.6285 10.811,24.9302 24.2038,24.9302 h 24.2038 v -14.7919 h -24.2038 v -13.7947 h 37.5965 v 42.3813 h -37.5965 c -20.6539,0 -37.5966,-17.2849 -37.5966,-38.7249 0,-21.2737 16.7813,-38.7248 37.5966,-38.7248 h 37.5965 v 13.7947 h -37.5965 c -13.3928,0 -24.2038,11.1354 -24.2038,24.9301 z"
   class="st0"
   id="path26" /><path
   style="fill:#AD8254;stroke:none;stroke-width:1.63762"
   d="m 1186.7466,193.93572 h -15.0064 l -6.9384,-13.7947 -16.4586,-33.2402 -16.4585,33.2402 -6.9384,13.7947 h -15.0064 l 6.9384,-13.7947 31.4649,-63.4888 31.465,63.4888 z"
   class="st0"
   id="path27" /><path
   style="fill:#AD8254;stroke:none;stroke-width:1.63762"
   d="m 1252.2581,180.14102 v 13.7947 h -38.0806 c -3.7112,0 -7.2611,-0.831 -10.4883,-2.493 -4.6794,-2.493 -8.552,-6.4819 -10.811,-11.3017 -1.6136,-3.324 -2.4204,-6.9804 -2.4204,-10.8031 v -52.6857 h 13.3928 v 54.0153 c 0.6454,4.8199 4.3567,8.8087 9.1974,9.4735 z"
   class="st0"
   id="path28" /><path
   style="opacity:1;fill:#18273A;fill-opacity:1;fill-rule:nonzero;stroke:none;stroke-width:1.05278;stroke-linecap:round;stroke-linejoin:miter;stroke-miterlimit:4;stroke-dasharray:none;stroke-opacity:1;paint-order:markers fill stroke"
   id="path29"
   d="m 973.26728,-828.05348 -11.31708,0 -11.31708,0 5.65854,-9.80088 5.65854,-9.80088 5.65854,9.80088 z"
   transform="matrix(1.6135856,0,0,1.6620117,-403.84571,1569.2801)" /><text
   style="font-style:normal;font-variant:normal;font-weight:normal;font-stretch:normal;font-size:43.4511px;line-height:1.25;font-family:'Agency FB';-inkscape-font-specification:'Agency FB';letter-spacing:0px;word-spacing:0px;fill:#18273A;fill-opacity:1;stroke:none;stroke-width:1.08627"
   x="329.14307"
   y="287.4747"
   id="text29"
   textLength="720"
   lengthAdjust="spacing"
   transform="scale(1.2155546,0.82266976)"><tspan
     id="tspan29"
     x="329.14307"
     y="287.4747"
     style="font-style:normal;font-variant:normal;font-weight:bold;font-stretch:normal;font-family:'Trajan Pro';-inkscape-font-specification:'Trajan Pro Bold';fill:#18273A;fill-opacity:1;stroke-width:1.08627">Strategy. Clarity. Resolution.</tspan></text><path
   id="path31"
   style="fill:#AD8254;fill-opacity:1;fill-rule:nonzero;stroke:none;stroke-width:1.33333"
   d="m 177.33719,32.359912 59.936,59.936 h 32.36 L 177.33719,-8.7928062e-5 -1.1141036e-4,177.33732 177.33719,354.67332 v -32.36 L 32.361189,177.33732 Z" /><path
   id="path32"
   style="fill:#18273A;fill-opacity:1;fill-rule:nonzero;stroke:none;stroke-width:1.33333"
   d="m 116.09979,128.80782 c -5.1147,0 -9.2614,4.1467 -9.2614,9.2613 v 5.556 c 0,5.1147 4.1467,9.2614 9.2614,9.2614 h 181.764 32.3613 l -24.0787,-24.0787 h -32.3613 z" /><path
   id="path33"
   style="fill:#18273A;fill-opacity:1;fill-rule:nonzero;stroke:none;stroke-width:1.33333"
   d="m 305.57539,160.27712 h -0.32 -140.9534 c -5.1146,0 -9.26,4.1467 -9.26,9.2614 0,5.1146 4.1454,9.26 9.26,9.26 h 141.2734 c 5.0146,0 9.0746,-3.992 9.232,-8.9694 0,-0.099 0.029,-0.1906 0.029,-0.2906 0,-5.1147 -4.1467,-9.2614 -9.2614,-9.2614" /><path
   id="path35"
   style="fill:#18273A;fill-opacity:1;fill-rule:nonzero;stroke:none;stroke-width:1.33333"
   d="m 164.30239,102.87632 c -5.1146,0 -9.2613,4.1467 -9.2613,9.2614 0,5.1146 4.1467,9.2613 9.2613,9.2613 h 102.0734 32.3613 l -18.5227,-18.5227 h -32.36 z" /><path
   id="path36"
   style="fill:#18273A;fill-opacity:1;fill-rule:nonzero;stroke:none;stroke-width:1.33333"
   d="m 263.63919,187.79302 c -5.1146,0 -9.2613,4.1467 -9.2613,9.2613 v 48.2187 32.36 l 18.5227,-18.5213 v -32.3614 -29.696 c 0,-5.1146 -4.1467,-9.2613 -9.2614,-9.2613" /><path
   id="path37"
   style="fill:#18273A;fill-opacity:1;fill-rule:nonzero;stroke:none;stroke-width:1.33333"
   d="m 237.70799,187.79302 h -5.5573 c -5.1147,0 -9.26,4.1467 -9.26,9.2613 v 79.7067 32.36 l 24.0787,-24.0787 v -32.36 -55.628 c 0,-5.1146 -4.1467,-9.2613 -9.2614,-9.2613" /><path
   id="path39"
   style="fill:#18273A;fill-opacity:1;fill-rule:nonzero;stroke:none;stroke-width:1.33333"
   d="m 206.23859,187.79302 c -5.1147,0 -9.2614,4.1467 -9.2614,9.2613 v 105.6187 32.3613 l 18.5227,-18.5226 v -32.36 -87.0974 c 0,-5.1146 -4.1467,-9.2613 -9.2613,-9.2613" /><path
   d="m 177.33719,32.359912 59.936,59.936 h 32.36 L 177.33719,-8.7928062e-5 -1.1141036e-4,177.33732 177.33719,354.67332 v -32.36 L 32.361189,177.33732 Z"
   style="fill:#AD8254;fill-opacity:1;fill-rule:nonzero;stroke:none;stroke-width:1.33333"
   id="path40" /><path
   d="m 116.09979,128.80782 c -5.1147,0 -9.2614,4.1467 -9.2614,9.2613 v 5.556 c 0,5.1147 4.1467,9.2614 9.2614,9.2614 h 181.764 32.3613 l -24.0787,-24.0787 h -32.3613 z"
   style="fill:#18273A;fill-opacity:1;fill-rule:nonzero;stroke:none;stroke-width:1.33333"
   id="path41" /><path
   d="m 305.57539,160.27712 h -0.32 -140.9534 c -5.1146,0 -9.26,4.1467 -9.26,9.2614 0,5.1146 4.1454,9.26 9.26,9.26 h 141.2734 c 5.0146,0 9.0746,-3.992 9.232,-8.9694 0,-0.099 0.029,-0.1906 0.029,-0.2906 0,-5.1147 -4.1467,-9.2614 -9.2614,-9.2614"
   style="fill:#18273A;fill-opacity:1;fill-rule:nonzero;stroke:none;stroke-width:1.33333"
   id="path108" /><path
   d="m 164.30239,102.87632 c -5.1146,0 -9.2613,4.1467 -9.2613,9.2614 0,5.1146 4.1467,9.2613 9.2613,9.2613 h 102.0734 32.3613 l -18.5227,-18.5227 h -32.36 z"
   style="fill:#18273A;fill-opacity:1;fill-rule:nonzero;stroke:none;stroke-width:1.33333"
   id="path109" /><path
   d="m 263.63919,187.79302 c -5.1146,0 -9.2613,4.1467 -9.2613,9.2613 v 48.2187 32.36 l 18.5227,-18.5213 v -32.3614 -29.696 c 0,-5.1146 -4.1467,-9.2613 -9.2614,-9.2613"
   style="fill:#18273A;fill-opacity:1;fill-rule:nonzero;stroke:none;stroke-width:1.33333"
   id="path111" /><path
   d="m 237.70799,187.79302 h -5.5573 c -5.1147,0 -9.26,4.1467 -9.26,9.2613 v 79.7067 32.36 l 24.0787,-24.0787 v -32.36 -55.628 c 0,-5.1146 -4.1467,-9.2613 -9.2614,-9.2613"
   style="fill:#18273A;fill-opacity:1;fill-rule:nonzero;stroke:none;stroke-width:1.33333"
   id="path112" /><path
   d="m 206.23859,187.79302 c -5.1147,0 -9.2614,4.1467 -9.2614,9.2613 v 105.6187 32.3613 l 18.5227,-18.5226 v -32.36 -87.0974 c 0,-5.1146 -4.1467,-9.2613 -9.2613,-9.2613"
   style="fill:#18273A;fill-opacity:1;fill-rule:nonzero;stroke:none;stroke-width:1.33333"
   id="path113" /></svg>
